<svg width="506" height="606" xmlns="http://www.w3.org/2000/svg" version="1.1">
 
<rect x="0" y="0" width="506" height="606" 
style="fill:rgb(105,105,105);stroke-width:3;stroke:rgb(0,0,0)" />
		
<rect x="100" y="0" width="200" height="200" 
style="fill:rgb(255,215,0);stroke-width:3;stroke:rgb(0,0,0)" />

<rect x="400" y="200" width="100" height="100" 
style="fill:rgb(255,215,0);stroke-width:3;stroke:rgb(0,0,0)" />

<rect x="200" y="100" width="100" height="100" 
style="fill:rgb(0,255,0);stroke-width:3;stroke:rgb(0,0,0)" />

<rect x="100" y="200" width="200" height="100" 
style="fill:rgb(0,255,0);stroke-width:3;stroke:rgb(0,0,0)" />

<rect x="0" y="300" width="300" height="100" 
style="fill:rgb(0,255,0);stroke-width:3;stroke:rgb(0,0,0)" />

<rect x="0" y="400" width="300" height="100" 
style="fill:rgb(0,255,0);stroke-width:3;stroke:rgb(0,0,0)" />
	
<rect x="0" y="500" width="500" height="100" 
style="fill:rgb(0,255,0);stroke-width:3;stroke:rgb(0,0,0)" />
  
 <g stroke="black" >
 
  <!-- The Upper left is 0,0 -->
  <!-- Draw the top, middle and bottom horizontal lines -->
 
  <line x1="0" y1="3" x2="500" y2="3" stroke-width="6" />
  
  <line x1="0" y1="103" x2="500" y2="103" stroke-width="6" />
  <line x1="0" y1="203" x2="500" y2="203" stroke-width="6" />
  <line x1="0" y1="303" x2="500" y2="303" stroke-width="6" />
  <line x1="0" y1="403" x2="500" y2="403" stroke-width="6" />
  <line x1="0" y1="503" x2="500" y2="503" stroke-width="6" />
  <line x1="0" y1="603" x2="500" y2="603" stroke-width="6" />
  
  <!-- Draw the vertical lines left to right -->
 
  <line x1="3" y1="0" x2="3" y2="618" stroke-width="6" />
  <line x1="103" y1="0" x2="103" y2="618" stroke-width="6" />
  <line x1="203" y1="0" x2="203" y2="618" stroke-width="6" />
  <line x1="303" y1="0" x2="303" y2="618" stroke-width="6" />
  <line x1="403" y1="0" x2="403" y2="618" stroke-width="6" />
  <line x1="503" y1="0" x2="503" y2="618" stroke-width="6" />
  
 </g>
 
<text x="25" y="75" fill="white" font-size="70px">K</text>
<text x="125" y="75" fill="white" font-size="70px">A</text>
<text x="225" y="75" fill="white" font-size="70px">P</text>
<text x="325" y="75" fill="white" font-size="70px">P</text>
<text x="425" y="75" fill="white" font-size="70px">A</text>

<text x="25" y="175" fill="white" font-size="70px">A</text>
<text x="125" y="175" fill="white" font-size="70px">P</text>
<text x="225" y="175" fill="white" font-size="70px">A</text>
<text x="325" y="175" fill="white" font-size="70px">R</text>
<text x="425" y="175" fill="white" font-size="70px">T</text>

<text x="25" y="275" fill="white" font-size="70px">C</text>
<text x="125" y="275" fill="white" font-size="70px">L</text>
<text x="225" y="275" fill="white" font-size="70px">A</text>
<text x="325" y="275" fill="white" font-size="70px">M</text>
<text x="425" y="275" fill="white" font-size="70px">P</text>

<text x="25" y="375" fill="white" font-size="70px">P</text>
<text x="125" y="375" fill="white" font-size="70px">L</text>
<text x="225" y="375" fill="white" font-size="70px">A</text>
<text x="325" y="375" fill="white" font-size="70px">Z</text>
<text x="425" y="375" fill="white" font-size="70px">A</text>

<text x="25" y="475" fill="white" font-size="70px">P</text>
<text x="125" y="475" fill="white" font-size="70px">L</text>
<text x="225" y="475" fill="white" font-size="70px">A</text>
<text x="325" y="475" fill="white" font-size="70px">I</text>
<text x="425" y="475" fill="white" font-size="70px">D</text>

<text x="25" y="575" fill="white" font-size="70px">P</text>
<text x="125" y="575" fill="white" font-size="70px">L</text>
<text x="225" y="575" fill="white" font-size="70px">A</text>
<text x="325" y="575" fill="white" font-size="70px">N</text>
<text x="425" y="575" fill="white" font-size="70px">E</text>

</svg>